# xmcd
# 
# Track frame offsets:
#     150
#     17485
#     34890
# 
# Disc length: 693
# 
# Revision: 11
# Processed by: cddbd v1.5.2PL0 Copyright (c) Steve Scherf et al.
# Submitted via: fre:ac v1.0.17
# 
DISCID=1902b303
DTITLE=Various Artist - Ā ii na! (あぁ いいな！) [Single]
DYEAR=2004
DGENRE=Chanson
TTITLE0=W - Ā ii na! (あぁ いいな！) [Instrumental]
TTITLE1=W - Otome no keitai denwa no himitsu (乙女の携帯電話の秘密)
TTITLE2=W - Ā ii na! (あぁ いいな！) [Instrumental]
EXTD=
EXTT0=
EXTT1=
EXTT2=
PLAYORDER=
